<?xml version="1.0" encoding="UTF-8"?>
<svg width="20" height="20" viewBox="0 0 20 20" fill="none" xmlns="http://www.w3.org/2000/svg">
    <path d="M14.167 5.833c.916 0 1.666-.75 1.666-1.666 0-.917-.75-1.667-1.666-1.667-.917 0-1.667.75-1.667 1.667 0 .916.75 1.666 1.667 1.666zm-4.167 10c-2.5 0-4.167-1.667-4.167-4.166 0-2.5 1.667-4.167 4.167-4.167 2.5 0 4.167 1.667 4.167 4.167 0 2.5-1.667 4.166-4.167 4.166zm0-10c-3.333 0-5.833 2.5-5.833 5.834 0 3.333 2.5 5.833 5.833 5.833 3.333 0 5.833-2.5 5.833-5.833 0-3.334-2.5-5.834-5.833-5.834z" fill="#000"/>
</svg> 